<svg width="26" height="25" viewBox="0 0 26 25" fill="none" xmlns="http://www.w3.org/2000/svg">
    <g clip-path="url(#clip0_5_129)">
        <path d="M25.5 12.5C25.5 5.59648 19.9035 0 13 0C6.09648 0 0.5 5.59639 0.5 12.5C0.5 18.7391 5.07109 23.9105 11.0469 24.8481V16.1133H7.87305V12.5H11.0469V9.74609C11.0469 6.61328 12.9131 4.88281 15.7683 4.88281C17.1359 4.88281 18.5664 5.12695 18.5664 5.12695V8.20313H16.9902C15.4373 8.20313 14.9531 9.1667 14.9531 10.1553V12.5H18.4199L17.8657 16.1133H14.9531V24.8481C20.9289 23.9105 25.5 18.7392 25.5 12.5Z" fill="white"/>
        <path d="M17.8657 16.1133L18.4199 12.5H14.9531V10.1553C14.9531 9.1666 15.4374 8.20312 16.9902 8.20312H18.5664V5.12695C18.5664 5.12695 17.1359 4.88281 15.7683 4.88281C12.9131 4.88281 11.0469 6.61328 11.0469 9.74609V12.5H7.87305V16.1133H11.0469V24.8481C11.693 24.9494 12.346 25.0002 13 25C13.654 25.0002 14.307 24.9494 14.9531 24.8481V16.1133H17.8657Z" fill="#1877F2"/>
    </g>
    <defs>
        <clipPath id="clip0_5_129">
            <rect width="25" height="25" fill="white" transform="translate(0.5)"/>
        </clipPath>
    </defs>
</svg>
