<svg width="24" height="25" viewBox="0 0 24 25" fill="none" xmlns="http://www.w3.org/2000/svg">
    <path d="M9.35419 22C10.0593 22.6224 10.9856 23 12 23C13.0145 23 13.9407 22.6224 14.6458 22M18 9C18 7.4087 17.3679 5.88258 16.2427 4.75736C15.1174 3.63214 13.5913 3 12 3C10.4087 3 8.8826 3.63214 7.75738 4.75736C6.63216 5.88258 6.00002 7.4087 6.00002 9C6.00002 12.0902 5.22049 14.206 4.34968 15.6054C3.61515 16.7859 3.24788 17.3761 3.26134 17.5408C3.27626 17.7231 3.31488 17.7926 3.46179 17.9016C3.59448 18 4.19261 18 5.38887 18H18.6112C19.8074 18 20.4056 18 20.5382 17.9016C20.6852 17.7926 20.7238 17.7231 20.7387 17.5408C20.7522 17.3761 20.3849 16.7859 19.6504 15.6054C18.7795 14.206 18 12.0902 18 9Z" stroke="black" stroke-width="2" stroke-linecap="round" stroke-linejoin="round"/>
    <circle cx="17" cy="7" r="6.5" fill="black" stroke="white"/>
    <path d="M17.8641 9.71971V5H16V5.83782H16.8937V9.71971H17.8641Z" fill="white"/>
</svg>
